<svg
  width="33"
  height="32"
  viewBox="0 0 33 32"
  fill="none"
  xmlns="http://www.w3.org/2000/svg"
>
  <path
    fill-rule="evenodd"
    clip-rule="evenodd"
    d="M28.4997 13.3327C28.8533 13.3327 29.1924 13.1922 29.4425 12.9422C29.6925 12.6921 29.833 12.353 29.833 11.9993C29.833 11.6457 29.6925 11.3066 29.4425 11.0565C29.1924 10.8065 28.8533 10.666 28.4997 10.666H25.833C25.4794 10.666 25.1402 10.8065 24.8902 11.0565C24.6402 11.3066 24.4997 11.6457 24.4997 11.9993C24.4997 12.353 24.6402 12.6921 24.8902 12.9422C25.1402 13.1922 25.4794 13.3327 25.833 13.3327H28.4997ZM27.0997 7.28468C27.227 7.16169 27.3286 7.01456 27.3985 6.85189C27.4684 6.68922 27.5051 6.51426 27.5067 6.33722C27.5082 6.16018 27.4745 5.98461 27.4074 5.82074C27.3404 5.65688 27.2414 5.50801 27.1162 5.38282C26.991 5.25763 26.8421 5.15863 26.6783 5.09159C26.5144 5.02455 26.3388 4.99081 26.1618 4.99235C25.9848 4.99389 25.8098 5.03067 25.6471 5.10055C25.4845 5.17043 25.3373 5.272 25.2143 5.39935L23.3263 7.28468C23.2024 7.40865 23.104 7.55582 23.0369 7.71779C22.9699 7.87976 22.9353 8.05336 22.9353 8.22868C22.9353 8.404 22.9699 8.5776 23.0369 8.73957C23.104 8.90154 23.2024 9.04871 23.3263 9.17268C23.4503 9.29665 23.5975 9.39499 23.7595 9.46208C23.9214 9.52917 24.095 9.5637 24.2703 9.5637C24.4457 9.5637 24.6193 9.52917 24.7812 9.46208C24.9432 9.39499 25.0904 9.29665 25.2143 9.17268L27.0997 7.28468ZM21.553 13.0527C21.9877 11.75 20.749 10.5113 19.4463 10.946L5.31568 15.6553C3.88634 16.1313 3.77168 18.1087 5.13701 18.746L11.0117 21.4873L13.7517 27.362C14.389 28.7273 16.3677 28.6127 16.8437 27.1833L21.553 13.0527ZM8.53968 17.3913L18.3917 14.1073L15.1077 23.9607L13.2743 20.03C13.1088 19.6753 12.8237 19.3902 12.469 19.2247L8.53968 17.3913ZM27.0997 18.5993C26.8496 18.8493 26.5106 18.9897 26.157 18.9897C25.8035 18.9897 25.4644 18.8493 25.2143 18.5993L23.3263 16.714C23.2025 16.5901 23.1042 16.4431 23.0372 16.2812C22.9701 16.1194 22.9356 15.9459 22.9356 15.7707C22.9356 15.5955 22.9701 15.422 23.0372 15.2602C23.1042 15.0983 23.2025 14.9512 23.3263 14.8273C23.4502 14.7035 23.5973 14.6052 23.7591 14.5382C23.921 14.4711 24.0945 14.4366 24.2697 14.4366C24.4449 14.4366 24.6183 14.4711 24.7802 14.5382C24.9421 14.6052 25.0891 14.7035 25.213 14.8273L27.0983 16.714C27.3483 16.9641 27.4887 17.3031 27.4887 17.6567C27.4887 18.0102 27.3496 18.3493 27.0997 18.5993ZM20.4997 2.66602C20.8533 2.66602 21.1924 2.80649 21.4425 3.05654C21.6925 3.30659 21.833 3.64573 21.833 3.99935V6.66602C21.833 7.01964 21.6925 7.35878 21.4425 7.60882C21.1924 7.85887 20.8533 7.99935 20.4997 7.99935C20.1461 7.99935 19.8069 7.85887 19.5569 7.60882C19.3068 7.35878 19.1663 7.01964 19.1663 6.66602V3.99935C19.1663 3.64573 19.3068 3.30659 19.5569 3.05654C19.8069 2.80649 20.1461 2.66602 20.4997 2.66602ZM15.785 9.17135C15.9088 9.29523 16.0558 9.39351 16.2176 9.46059C16.3793 9.52767 16.5527 9.56222 16.7279 9.56229C16.903 9.56235 17.0764 9.52791 17.2383 9.46095C17.4001 9.39399 17.5471 9.29581 17.671 9.17202C17.7949 9.04822 17.8932 8.90124 17.9602 8.73947C18.0273 8.57769 18.0619 8.40428 18.0619 8.22915C18.062 8.05402 18.0276 7.88059 17.9606 7.71877C17.8936 7.55695 17.7955 7.4099 17.6717 7.28602L15.7837 5.39935C15.5335 5.14934 15.1942 5.00895 14.8405 5.00908C14.4868 5.0092 14.1477 5.14983 13.8977 5.40002C13.6477 5.6502 13.5073 5.98946 13.5074 6.34315C13.5075 6.69685 13.6482 7.03601 13.8983 7.28602L15.785 9.17135Z"
    fill="white"
  />
</svg>
