<svg
  width="106"
  height="106"
  viewBox="0 0 106 106"
  fill="none"
  xmlns="http://www.w3.org/2000/svg"
>
  <rect
    width="106"
    height="106"
    rx="53"
    transform="matrix(-1 0 0 1 106 0)"
    fill="#D9D9D9"
    fill-opacity="0.85"
  />
  <path
    d="M47.5463 36.3745C47.3659 36.1836 47.2248 35.9589 47.1312 35.7135C47.0375 35.468 46.9932 35.2065 47.0006 34.9439C47.008 34.6813 47.0671 34.4228 47.1745 34.183C47.2818 33.9432 47.4353 33.7269 47.6263 33.5465C47.8172 33.3661 48.0418 33.225 48.2873 33.1314C48.5328 33.0377 48.7943 32.9934 49.0569 33.0008C49.3195 33.0082 49.578 33.0673 49.8178 33.1747C50.0576 33.282 50.2739 33.4356 50.4543 33.6265L67.4543 51.6265C67.8054 51.9978 68.001 52.4895 68.001 53.0005C68.001 53.5115 67.8054 54.0032 67.4543 54.3745L50.4543 72.3765C50.275 72.5716 50.0588 72.7292 49.8182 72.84C49.5775 72.9509 49.3172 73.0128 49.0524 73.0222C48.7877 73.0316 48.5236 72.9883 48.2757 72.8948C48.0278 72.8013 47.8009 72.6595 47.6083 72.4776C47.4157 72.2957 47.2611 72.0773 47.1535 71.8352C47.046 71.593 46.9877 71.3319 46.9819 71.067C46.9761 70.8021 47.0231 70.5387 47.1199 70.2921C47.2168 70.0455 47.3618 69.8206 47.5463 69.6305L63.2503 53.0005L47.5463 36.3745Z"
    fill="#E5622C"
  />
</svg>
